<svg width="66" height="65" viewBox="0 0 66 65" fill="none" xmlns="http://www.w3.org/2000/svg">
<g id="send 1" clip-path="url(#clip0_10_702)">
<g id="Group">
<g id="Group_2">
<path id="Vector" d="M49.7482 18.8718L8.01833 21.9757C6.26028 22.1064 4.75217 23.2008 4.08247 24.8315C3.41285 26.4623 3.71663 28.3008 4.8754 29.6293L14.0269 40.1216L29.0626 32.53C29.7545 32.1806 30.5987 32.4583 30.9481 33.1503C31.2974 33.8422 31.0197 34.6864 30.3278 35.0357L15.292 42.6274L18.3016 56.2207C18.6827 57.942 19.9816 59.278 21.6915 59.7073C23.4047 60.1374 25.1793 59.5703 26.3264 58.2357L53.5996 26.4996C54.8414 25.0547 55.0792 23.1006 54.2205 21.3999C53.3618 19.6991 51.6481 18.7303 49.7482 18.8718Z" fill="#41BE90"/>
</g>
</g>
</g>
<defs>
<clipPath id="clip0_10_702">
<rect width="47.9037" height="47.9037" fill="white" transform="translate(0.663086 21.6094) rotate(-26.7895)"/>
</clipPath>
</defs>
</svg>
