<svg width="42" height="36" viewBox="0 0 42 36" fill="none" xmlns="http://www.w3.org/2000/svg">
<g id="users-class 1" clip-path="url(#clip0_10_666)">
<path id="Vector" d="M17.3377 19.4732C16.9862 21.4838 18.3216 23.3967 20.3195 23.746C22.3181 24.0953 24.2227 22.7489 24.5742 20.7382C24.9257 18.7275 23.5908 16.8148 21.5923 16.4654C19.5944 16.1161 17.6892 17.4625 17.3377 19.4732ZM30.0015 21.687C29.65 23.6977 30.9854 25.6105 32.9833 25.9598C34.9818 26.3092 36.8864 24.9627 37.2379 22.952C37.5894 20.9414 36.2546 19.0286 34.2561 18.6792C32.2582 18.33 30.353 19.6763 30.0015 21.687ZM7.65576 21.5321C9.65426 21.8815 11.5589 20.5351 11.9104 18.5244C12.2619 16.5137 10.927 14.6009 8.92852 14.2516C6.93058 13.9023 5.02542 15.2486 4.67391 17.2593C4.32241 19.27 5.65782 21.1829 7.65576 21.5321ZM34.4743 28.0962L30.856 27.4637C28.8581 27.1144 26.9529 28.4608 26.6014 30.4714L26.2832 32.2916C26.1075 33.2967 26.7752 34.2534 27.7742 34.428L35.0106 35.693C36.0096 35.8677 36.9622 35.1942 37.1379 34.1892L37.4561 32.369C37.8076 30.3583 36.4722 28.4455 34.4743 28.0962ZM21.8105 25.8824L18.1922 25.2499C16.1943 24.9006 14.2891 26.2469 13.9376 28.2576L13.6194 30.0778C13.4437 31.0828 14.1114 32.0395 15.1104 32.2142L22.3468 33.4792C23.3458 33.6538 24.2984 32.9804 24.4741 31.9753L24.7923 30.1552C25.1438 28.1445 23.8084 26.2316 21.8105 25.8824ZM9.14668 23.6685L5.52846 23.036C3.53052 22.6867 1.62535 24.0331 1.27385 26.0438L0.95566 27.8639C0.779959 28.869 1.44761 29.8257 2.44658 30.0003L9.68303 31.2654C10.682 31.44 11.6346 30.7666 11.8103 29.7615L12.1285 27.9414C12.48 25.9307 11.1446 24.0178 9.14668 23.6685ZM10.5195 5.15084L35.847 9.57851L34.5743 16.8591C35.9696 17.103 37.1346 17.8706 37.9442 18.9119L39.6086 9.3914C39.8804 7.83631 38.8845 6.35796 37.388 6.09635L10.2513 1.35242C8.75482 1.09081 7.31639 2.1436 7.04453 3.69868L5.3802 13.2192C6.49505 12.5143 7.852 12.1876 9.24671 12.4314L10.5195 5.15084Z" fill="#545AE8"/>
</g>
<defs>
<clipPath id="clip0_10_666">
<rect width="36.731" height="29.564" fill="white" transform="translate(5.72852 0.561768) rotate(9.91602)"/>
</clipPath>
</defs>
</svg>
