<svg width="50" height="42" viewBox="0 0 50 42" fill="none" xmlns="http://www.w3.org/2000/svg">
<g id="user-friends 1" clip-path="url(#clip0_10_871)">
<path id="Vector" d="M16.2188 21.6912C20.5347 21.2253 23.6476 17.3244 23.1776 12.9706C22.7076 8.61673 18.834 5.46993 14.5181 5.93581C10.2021 6.40169 7.08924 10.3026 7.5592 14.6565C8.02917 19.0103 11.9028 22.1571 16.2188 21.6912ZM21.8166 23.364L21.2379 23.4264C19.8635 24.2864 18.2984 24.8822 16.5832 25.0674C14.8679 25.2525 13.2187 25.0036 11.6855 24.4575L11.1068 24.52C6.67231 24.9987 3.46626 29.0164 3.94913 33.4898L4.16779 35.5155C4.36899 37.3794 6.03131 38.7299 7.87903 38.5304L27.9598 36.3628C29.8076 36.1634 31.1434 34.4893 30.9422 32.6254L30.7235 30.5997C30.2407 26.1263 26.2511 22.8853 21.8166 23.364ZM36.2996 19.5236C39.995 19.1247 42.6667 15.7766 42.2643 12.0488C41.8619 8.32095 38.5373 5.62011 34.8418 6.019C31.1464 6.4179 28.4747 9.76601 28.8771 13.4938C29.2795 17.2217 32.6041 19.9225 36.2996 19.5236ZM39.8893 21.4132L39.6244 21.4418C38.6916 21.884 37.691 22.2197 36.6033 22.3371C35.5155 22.4545 34.4663 22.3401 33.4607 22.1071L33.1957 22.1357C31.7733 22.2892 30.5073 22.8457 29.429 23.6381C31.3299 25.3043 32.6617 27.6439 32.9548 30.3589L33.2463 33.0598C33.263 33.2146 33.2441 33.366 33.2531 33.5145L45.5665 32.1853C47.4142 31.9859 48.7501 30.3118 48.5489 28.4479C48.0789 24.0941 44.2053 20.9473 39.8893 21.4132Z" fill="#2C93F1"/>
</g>
<defs>
<clipPath id="clip0_10_871">
<rect width="44.8833" height="36.2216" fill="white" transform="translate(0.887695 5.13037) rotate(-6.16081)"/>
</clipPath>
</defs>
</svg>
